<svg width="17" height="17" viewBox="0 0 17 17" fill="none" xmlns="http://www.w3.org/2000/svg">
<path d="M15.1199 7.1875H9.8125V1.88008C9.8125 1.18691 9.22598 0.625 8.5 0.625C7.77402 0.625 7.1875 1.18691 7.1875 1.88008V7.1875H1.88008C1.18691 7.1875 0.625 7.77402 0.625 8.5C0.625 9.22598 1.18691 9.8125 1.88008 9.8125H7.1875V15.1199C7.1875 15.8131 7.77402 16.375 8.5 16.375C9.22598 16.375 9.8125 15.8131 9.8125 15.1199V9.8125H15.1199C15.8131 9.8125 16.375 9.22598 16.375 8.5C16.375 7.77402 15.8131 7.1875 15.1199 7.1875Z" fill="#3D3D3D"/>
</svg>
