<svg width="21" height="21" viewBox="0 0 21 21" fill="none" xmlns="http://www.w3.org/2000/svg">
<path d="M19.425 12.6L18.375 11.9875C17.2375 11.2875 17.2375 9.625 18.375 8.925L19.425 8.3125C20.3 7.7875 20.5625 6.7375 20.0375 5.95L19.1625 4.4625C18.6375 3.5875 17.5875 3.325 16.8 3.85L15.75 4.4625C14.6125 5.1625 13.125 4.2875 13.125 2.975V1.75C13.125 0.7875 12.3375 0 11.375 0H9.625C8.6625 0 7.875 0.7875 7.875 1.75V2.8875C7.875 4.2 6.3875 5.075 5.25 4.375L4.2 3.85C3.325 3.325 2.275 3.675 1.8375 4.4625L0.962501 5.95C0.525001 6.825 0.787501 7.875 1.575 8.4L2.625 9.0125C3.7625 9.625 3.7625 11.375 2.625 11.9875L1.575 12.6C0.700001 13.125 0.437501 14.175 0.962501 14.9625L1.8375 16.45C2.3625 17.325 3.4125 17.5875 4.2 17.0625L5.25 16.5375C6.3875 15.8375 7.875 16.7125 7.875 18.025V19.25C7.875 20.2125 8.6625 21 9.625 21H11.375C12.3375 21 13.125 20.2125 13.125 19.25V18.1125C13.125 16.8 14.6125 15.925 15.75 16.625L16.8 17.2375C17.675 17.7625 18.725 17.4125 19.1625 16.625L20.0375 15.1375C20.475 14.175 20.2125 13.125 19.425 12.6ZM10.5 14C8.575 14 7 12.425 7 10.5C7 8.575 8.575 7 10.5 7C12.425 7 14 8.575 14 10.5C14 12.425 12.425 14 10.5 14Z" fill="#3D3D3D"/>
</svg>
