<svg width="21" height="19" viewBox="0 0 21 19" fill="none" xmlns="http://www.w3.org/2000/svg">
<path d="M4.375 9.5H2.625C1.6625 9.5 0.875 10.2875 0.875 11.25V16.5C0.875 17.4625 1.6625 18.25 2.625 18.25H4.375C5.3375 18.25 6.125 17.4625 6.125 16.5V11.25C6.125 10.2875 5.3375 9.5 4.375 9.5Z" fill="#3D3D3D"/>
<path d="M11.375 0.75H9.625C8.6625 0.75 7.875 1.5375 7.875 2.5V16.5C7.875 17.4625 8.6625 18.25 9.625 18.25H11.375C12.3375 18.25 13.125 17.4625 13.125 16.5V2.5C13.125 1.5375 12.3375 0.75 11.375 0.75Z" fill="#3D3D3D"/>
<path d="M18.375 6H16.625C15.6625 6 14.875 6.7875 14.875 7.75V16.5C14.875 17.4625 15.6625 18.25 16.625 18.25H18.375C19.3375 18.25 20.125 17.4625 20.125 16.5V7.75C20.125 6.7875 19.3375 6 18.375 6Z" fill="#3D3D3D"/>
</svg>
